,
Brought to you by  http://www.scenetime.com/signup.php
 
 Hottest scene tracker on the net !!!   
 
No fake torrents from scenebalance 
shame on those who comment fake before downloading my torrents

    seed back for speed


 



...................................NFO:.................................................White Lion 2010 BDRIP XViD-SCR0N

   General
      Complete name : White Lion 2010 BDRIP XViD-SCR0N.avi
      Format : AVI
      Format/Info : Audio Video Interleave
      File size : 1.63 GiB
      Duration : 1h 33mn
      Overall bit rate : 2 499 Kbps

   Video #0
      ID : 0
      Format : MPEG-4 Visual
      Format profile : AdvancedSimple@L5
      Format settings, BVOP : Yes
      Format settings, QPel : No
      Format settings, GMC : No warppoints
      Format settings, Matrix : Default (H.263)
      Muxing mode : Packed bitstream
      Codec ID : XVID
      Codec ID/Hint : XviD
      Duration : 1h 33mn
      Bit rate : 1 785 Kbps
      Width : 720 pixels
      Height : 400 pixels
      Display aspect ratio : 16:9
      Frame rate : 23.976 fps
      Resolution : 24 bits
      Colorimetry : 4:2:0
      Scan type : Progressive
      Bits/(Pixel*Frame) : 0.258
      Stream size : 1.16 GiB (71%)
      
   Audio #1
      ID : 1
      Format : AC-3
      Format/Info : Audio Coding 3
      Codec ID : 2000
      Duration : 1h 33mn
      Bit rate mode : Constant
      Bit rate : 320 Kbps
      Channel(s) : 6 channels
      Channel positions : Front: L C R, Surround: L R, LFE
      Sampling rate : 48.0 KHz
      Stream size : 214 MiB (13%)
      Alignment : Aligned on interleaves
      Interleave, duration : 64 ms (1.53 video frames)
      Interleave, preload duration : 192 ms
      
   Audio #2
      ID : 2
      Format : AC-3
      Format/Info : Audio Coding 3
      Codec ID : 2000
      Duration : 1h 33mn
      Bit rate mode : Constant
      Bit rate : 384 Kbps
      Channel(s) : 6 channels
      Channel positions : Front: L C R, Surround: L R, LFE
      Sampling rate : 48.0 KHz
      Stream size : 257 MiB (15%)
      Alignment : Aligned on interleaves
      Interleave, duration : 64 ms (1.53 video frames)
      Interleave, preload duration : 192 ms

[img]http://img850.imageshack.us/img850/9634/lion1z.jpg[/img]
[img]http://img196.imageshack.us/img196/8020/lion4n.jpg[/img]
[img]http://img807.imageshack.us/img807/4420/lion3.jpg[/img]
[img]http://img4.imageshack.us/img4/2629/lion2c.jpg[/img]

[img]http://img850.imageshack.us/img850/2936/screensj.jpg[/img]